<?xml version="1.0" encoding="UTF-8"?>
<svg id="Layer_3" data-name="Layer 3" xmlns="http://www.w3.org/2000/svg" viewBox="0 0 1433.15 193.42">
  <defs>
    <style>
      .cls-1 {
        fill: #fff;
      }

      .cls-2 {
        fill: #ffce00;
      }
    </style>
  </defs>
  <g id="Layer_1" data-name="Layer 1">
    <g>
      <g>
        <polygon class="cls-1" points="257.77 152.4 287.55 152.4 287.55 93.07 343.88 93.07 343.88 65.01 287.55 65.01 287.55 31.55 352.5 31.55 352.5 3.52 257.77 3.52 257.77 152.4"/>
        <path class="cls-1" d="M390.18,58.97v-16.63h-28.03v110.06h28.03v-52.43c0-18.56,12.52-30.42,34.98-30.42h4.09v-28.93h-4.09c-14.48,0-26.33,6.92-34.98,18.35Z"/>
        <path class="cls-1" d="M493.66,39.77c-33.65,0-59.14,24.8-59.14,57.6s25.49,57.63,59.56,57.63c26.76,0,48.56-14.88,56.99-36.68h-30.45c-4.96,7.11-14.45,12.31-25.88,12.31-15.12,0-26.55-9.28-30.21-23.52h87.38c.66-2.81.88-6.26.88-9.28,0-33.25-25.46-58.05-59.14-58.05ZM464.76,86.6c3.87-13.6,14.66-22.46,28.91-22.46s25.7,9.07,29.14,22.46h-58.05Z"/>
        <path class="cls-1" d="M632.63,39.77c-14.24,0-26.31,5.17-34.95,14.88v-12.31h-28.06v110.06h28.06v-60.41c0-15.12,10.37-25.03,25.91-25.03,14.45,0,23.95,9.7,23.95,24.61v60.84h28.06v-69.91c0-25.91-17.05-42.72-42.96-42.72Z"/>
        <path class="cls-1" d="M750.43,66.95c12.73,0,23.1,7.13,26.76,17.69h29.78c-4.3-26.09-27.18-44.87-56.54-44.87-33.65,0-59.11,24.8-59.11,57.6s25.46,57.63,59.11,57.63c29.36,0,52.24-18.78,56.54-44.9h-29.78c-3.66,10.58-14.03,17.71-26.76,17.71-17.27,0-30.2-13.18-30.2-30.44s12.94-30.42,30.2-30.42Z"/>
        <path class="cls-1" d="M886.71,39.77c-14.24,0-26.33,5.38-34.95,15.54V3.51h-28.06v148.88h28.06v-60.41c0-15.12,10.34-25.03,25.88-25.03,14.45,0,23.95,9.7,23.95,24.61v60.84h28.05v-69.91c0-25.91-17.05-42.72-42.93-42.72Z"/>
        <polygon class="cls-1" points="954.47 152.4 984.25 152.4 984.25 93.07 1040.58 93.07 1040.58 65.01 984.25 65.01 984.25 31.55 1049.19 31.55 1049.19 3.52 954.47 3.52 954.47 152.4"/>
        <path class="cls-1" d="M1086.88,58.97v-16.63h-28.03v110.06h28.03v-52.43c0-17.71,11.4-29.3,31.96-30.34l-11.11-26.6c-8.22,2.94-15.22,8.49-20.85,15.94Z"/>
        <polygon class="cls-1" points="1212.89 42.34 1184.41 117.23 1155.93 42.34 1124 42.34 1169.11 151.34 1151.39 193.42 1181.6 193.42 1244.39 42.34 1212.89 42.34"/>
        <rect class="cls-1" x="1236.95" y="127" width="25.38" height="25.38"/>
        <path class="cls-1" d="M1378.85,58.17c-3.91-7.4-9.67-12.61-17.27-15.62-7.6-3.01-16.3-4.52-26.1-4.52-13.36,0-23.91,2.87-31.65,8.63-7.74,5.75-13.02,13.22-15.83,22.4l25.28,8.01c1.78-5.06,4.89-8.59,9.35-10.58,4.45-1.98,8.73-2.98,12.85-2.98,7.4,0,12.68,1.54,15.83,4.62,2.47,2.41,3.93,5.94,4.47,10.49-4.69.7-9.21,1.38-13.41,2-7.19,1.06-13.63,2.17-19.32,3.33-5.69,1.17-10.58,2.5-14.69,4.01-5.97,2.19-10.71,4.92-14.24,8.18-3.53,3.25-6.08,7-7.66,11.25-1.57,4.25-2.36,8.94-2.36,14.08,0,6.17,1.42,11.8,4.26,16.91,2.85,5.1,7.02,9.18,12.54,12.23,5.52,3.05,12.25,4.57,20.19,4.57,9.6,0,17.52-1.66,23.79-4.98,4.94-2.62,9.61-6.59,14.03-11.79v13.69h24.46v-67.83c0-5.07-.2-9.66-.62-13.77-.41-4.11-1.71-8.22-3.9-12.33ZM1352.74,118.39c-.75,1.57-2.17,3.53-4.26,5.85-2.09,2.33-4.9,4.41-8.43,6.22s-7.86,2.73-13,2.73c-3.22,0-5.99-.48-8.32-1.44-2.33-.96-4.13-2.35-5.4-4.16-1.27-1.81-1.9-3.99-1.9-6.52,0-1.85.39-3.53,1.18-5.04.79-1.51,2.02-2.89,3.7-4.16,1.68-1.27,3.89-2.45,6.63-3.54,2.39-.89,5.17-1.71,8.32-2.46,3.15-.76,7.3-1.6,12.44-2.52,3.29-.59,7.28-1.28,11.85-2.05-.05,1.97-.14,4.1-.29,6.57-.25,4.01-1.08,7.52-2.52,10.54Z"/>
        <rect class="cls-1" x="1405.19" y="3.52" width="27.95" height="24.66"/>
        <rect class="cls-1" x="1405.19" y="41.11" width="27.95" height="110.99"/>
      </g>
      <path class="cls-2" d="M30.57,95.29l136.37.05h0c0,8.98-3.18,17.35-8.96,23.54-6.41,6.88-15.12,10.67-24.49,10.67H63.21v30.57s70.28,0,70.28,0c17.08,0,33.14-6.67,45.25-18.77,12.1-12.1,18.77-28.17,18.77-45.25V0s-30.57,0-30.57,0v64.72h-102.92s-33.45,0-33.45,0c0-18.44,15.01-34.15,33.45-34.16h70.52V0s-70.52,0-70.52,0h0C46.94,0,30.88,6.67,18.77,18.77,6.67,30.88,0,46.94,0,64.02v125.68s30.57-29.36,30.57-29.36v-65"/>
    </g>
  </g>
</svg>