<?xml version="1.0" encoding="UTF-8"?>
<svg id="a" xmlns="http://www.w3.org/2000/svg" xmlns:xlink="http://www.w3.org/1999/xlink" version="1.1" viewBox="0 0 1917.6 1352.9">
  <!-- Generator: Adobe Illustrator 29.2.1, SVG Export Plug-In . SVG Version: 2.1.0 Build 116)  -->
  <defs>
    <style>
      .st0 {
        fill: url(#linear-gradient);
      }

      .st1 {
        fill: #f26522;
      }

      .st2 {
        fill: #fff;
      }
    </style>
    <linearGradient id="linear-gradient" x1="374.9" y1="-117.8" x2="1668" y2="-117.8" gradientTransform="translate(0 740)" gradientUnits="userSpaceOnUse">
      <stop offset="0" stop-color="#f15c24"/>
      <stop offset=".3" stop-color="#f26522"/>
      <stop offset=".7" stop-color="#f47920"/>
      <stop offset="1" stop-color="#f7941d"/>
    </linearGradient>
  </defs>
  <g>
    <path class="st2" d="M299.5,954.7v28h-43.5c-3.5,0-4.8,2.3-5.1,3.2-.5.9-.7,1.8-.7,2.8s.2,1.8.7,2.6c.7,1.2,1.9,3,5.1,3h46.8c4.4,0,8.3-2.6,8.3-8.8v-30.8c0-3.2-2.6-5.8-6-5.8,0,0-5.6,0-5.6,5.8"/>
    <path class="st2" d="M250.8,773.5c0,3.9,2.1,6.2,5.6,6.2h33.1c-7.4,5.8-32,25.3-36.8,29.4-1.6,1.2-2.3,2.6-2.3,4.8,0,4,3.3,5.8,6,5.8h48.7c3.7,0,5.8-2.5,5.8-6s-3.4-5.6-5.8-5.6h-31.7c12-9.3,23.6-18.8,35.5-28.7,1.4-.9,2.3-2.6,2.3-4.9,0-4.6-3.5-6.3-6.2-6.3h-48.6c-3.5,0-5.8,2.3-5.8,5.5"/>
    <path class="st2" d="M272.1,734.2h-11.1v-12.1c0-4.6,1.1-10.2,5.8-10.2s5.5,4.9,5.6,9c-.2,1.2-.4,9.8-.4,13.4M290.4,708.4c6.3,0,10,5.1,10,10.2v15.7h-17.6v-15.7c.2-2.5.7-10.2,7.6-10.2M275.6,704.7c-1.1-1.9-5.6-4.2-9.7-4.2-9.1,0-15.7,7.6-15.7,18.3v22c0,3,2.6,5.3,6,5.3h48.7c4.2,0,6-2.8,6-6.2v-23.9c0-4.9-3.2-9.8-5.8-12.7-1.6-1.8-3.7-3-6.2-4.2-2.3-1.2-4.9-1.9-7.7-1.9-9,.2-15,5.5-15.7,7.6"/>
    <path class="st2" d="M266.5,642.9c3.9,0,4.9,4.9,5.1,9.2v13.5h-10.9v-12.7c-.2-4.6.5-10,5.8-10M266.8,631.5c-9.9,0-17.1,7.6-17.1,18.1v22.5c0,3,1.9,5.3,6.2,5.3h49.8c3.9,0,6.2-2.5,6.2-6s0-1.8-.7-3c-1.2-1.9-3-3-5.5-3h-22.9v-7.7c.5-.3,24.1-14.1,25.9-15.5,1.8-1.2,2.8-3.5,2.8-4.9,0-3.7-3.4-6-5.1-6s-2.5.5-3.9,1.2c-4.6,2.6-17.2,10.7-19.4,12.1-.5-2.8-4.9-13.2-16.4-13.2"/>
    <path class="st2" d="M251,602.3c-.5.9-.7,2.1-.7,3s.2,1.9.7,2.8c.7,1.2,1.9,2.8,5.1,2.8h48.9c2.5,0,4.4-1,5.5-3.2.5-.9.7-1.8.7-2.8s-.2-1.9-.7-2.8c-.5-1.2-2.1-3-5.5-3h-48.9c-3,.2-4.2,1.8-5.1,3.2"/>
    <path class="st2" d="M276.1,463.1v17.8c0,3.2,2.5,5.8,5.8,5.8s5.6-2.6,5.6-5.8v-11.4h6.7c.4,0,1,.4,1,.5,3,2.1,4.4,6.7,4.4,13.5s-1.9,9.5-5.6,12.5c-4,3.2-8.6,4.6-14.3,4.6-11.3,0-18.5-6.7-18.5-16.9s1.4-10.2,4-13.9c1.1-1.4,1.6-2.8,1.6-4.4,0-3.2-2.3-5.6-5.3-5.6s-3,.5-4.2,1.8c-3.5,3.7-7.6,10.7-7.6,22.4s5.4,20.2,15,25c4.4,2.3,9.9,3.4,15.5,3.4,20.9,0,31.3-15.7,31.3-28.5s-3.9-26-14.2-26l-15-.2c-1.8,0-3.7.9-4.4,1.6-1.4,1.1-1.9,2.3-1.9,4"/>
    <path class="st2" d="M251.3,922.3c-.5.9-.7,2.1-.7,3s.2,1.8.7,2.8c.7,1.2,1.9,2.8,5.1,2.8h48.9c2.5,0,4.4-1,5.5-3.2.5-.9.7-1.8.7-2.8s-.2-1.9-.7-2.8c-.5-1.2-2.1-3-5.5-3h-48.9c-3,.2-4.2,1.8-5.1,3.2"/>
    <path class="st2" d="M301.5,868.7c0,11.1-9,19.9-19.9,19.9s-19.9-9-19.9-19.9,9-19.9,19.9-19.9,19.9,9,19.9,19.9M249.9,868.7c0,17.4,14.1,31.5,31.5,31.5s31.5-14.1,31.5-31.5-14.1-31.5-31.5-31.5-31.5,14.1-31.5,31.5"/>
    <path class="st1" d="M330.9,845.4c0,1.8-1.4,3.2-3.2,3.2s-3.2-1.4-3.2-3.2,1.4-3.2,3.2-3.2,3.2,1.4,3.2,3.2M330.9,927.6c0,1.8-1.4,3.2-3.2,3.2s-3.2-1.4-3.2-3.2,1.4-3.2,3.2-3.2c1.8-.2,3.2,1.4,3.2,3.2M324.5,840c-1.2.7-2.8,1.9-2.8,5.1v82.3c0,2.5,1,4.2,3.2,5.3.9.5,1.8.7,2.8.7s1.9-.2,2.8-.7c1.2-.5,3-2.1,3-5.5v-82.2c0-3-1.6-4.4-3.2-5.1-.9-.5-2.1-.7-3-.7s-1.8.2-2.8.7"/>
    <path class="st2" d="M278.8,538.6c-11.6,0-18.1,6.5-18.1,19.7v9.2h39.8v-9.3c0-12.8-6.5-19.5-20.6-19.5h-1.1,0ZM311.9,574.1c0,3-1.9,5.1-5.1,5.1h-52.3c-2.6,0-4.9-1.2-4.9-4v-18.7c0-18.5,11.3-30.3,29.4-30.3h1.4c20.2,0,31.7,11.3,31.7,31v16.9h-.2Z"/>
    <path class="st2" d="M300.5,398.3v26.6h-17.1v-23.6c0-2.3-2.1-5.1-5.8-5.1s-5.8,2.5-5.8,5.6v23.2h-9v-26.6c0-4-2.5-6-5.8-6s-5.8,2.5-5.8,6v32.2c0,1.4.2,2.5,1.1,3.9s2.5,2.1,4.6,2.1h49.1c3,0,6-2.3,6-6v-32.4c0-3.7-2.3-6-5.8-6s-5.6,2.5-5.6,6"/>
  </g>
  <path class="st0" d="M1355.5,720l-59.6-42.8v158.3h-146.4v-161.5h96v-281.7h-155.6v502.7h265.5v-175h0ZM1149,451.5h37.6v163h-37.6v-163h0ZM846.2,895h-59.6v-502.7h253.1v502.7h-58.7v-443.6h-37.7v443.6h-59.4v-443.6h-37.8v443.6h0ZM736.3,392.3h-156.1v59.1h96.6v163h-96.6v280.6h156.1v-502.7h0ZM676.7,835.5h-37.5v-161.5h37.5v161.5ZM374.9,795.7h96v139.1h-96v59.5h155.5V392.3h-155.5v403.4h0ZM433.9,451.9h37.6v284.3h-37.6v-284.3h0ZM1451.5,994.3h-871.3v-59.5h812.7v-238.6c0,0-96.9-72-96.9-72v-231.9h155.6v97.3h-58.4v-38.2h-37.6v140.3l96,72v330.6h0ZM1545.9,527.4h95.5v57.3h-95.5v95.5h-57.3l.4-95.1-95.8-.4v-57.3l95.8.4v-95.5l56.9-.4v95.5h0ZM1507.2,303.8h-33.6v-20.1h33.6v-33.6h20.1v33.6h33.6v20.1h-33.6v33.5h-20.1v-33.5ZM1668,359.9v32.5h-54.1v54.1h-32.4v-54.1h-54.1v-32.5h54.1v-54.1h32.4v54.1h54.1Z"/>
</svg>