<?xml version="1.0" encoding="UTF-8"?>
<svg id="Layer_2" data-name="Layer 2" xmlns="http://www.w3.org/2000/svg" xmlns:xlink="http://www.w3.org/1999/xlink" viewBox="0 0 1048.24 261.38">
  <defs>
    <style>

      .cls-2 {
        fill: url(#_Безымянный_градиент_57);
      }
    </style>
    <linearGradient id="_Безымянный_градиент_57" data-name="Безымянный градиент 57" x1="24.89" y1="221.29" x2="206.04" y2="40.14" gradientUnits="userSpaceOnUse">
      <stop offset="0" stop-color="#5800b2"/>
      <stop offset="1" stop-color="#a61aff"/>
    </linearGradient>
  </defs>
  <g id="_Слой_1" data-name="Слой 1">
    <g>
      <g>
        <path fill="#fff" d="M384.69,150.72v-29.36h94.92v103.98h-28.53v-29.08c-14.81,21.58-37.95,32.37-69.41,32.37-28.53,0-52.22-9.33-71.06-27.98-19.02-19.02-28.53-42.34-28.53-69.96s9.51-51.03,28.53-69.68c18.84-18.84,42.52-28.26,71.06-28.26,22.68,0,42.61,6.13,59.81,18.38,17.37,12.44,28.62,28.26,33.75,47.46h-36.21c-4.94-10.42-12.58-18.74-22.91-24.97-10.34-6.22-21.81-9.33-34.43-9.33-18.66,0-34.29,6.4-46.91,19.21-12.62,12.62-18.93,28.35-18.93,47.19s6.31,34.66,18.93,47.46c12.62,12.62,28.26,18.93,46.91,18.93,15.73,0,29.17-4.21,40.33-12.62,11.7-8.6,19.29-19.84,22.77-33.75h-60.08Z"/>
        <path fill="#fff" d="M599.88,195.71v-110.29h30.73v124.56c0,8.48-6.88,15.36-15.36,15.36h-98.5c-8.48,0-15.36-6.88-15.36-15.36v-124.56s30.73,0,30.73,0v110.29h67.76Z"/>
        <path fill="#fff" d="M768.21,107.09v-21.67h30.73v139.92h-30.73v-21.67c-12.26,16.65-28.63,24.97-49.11,24.97s-36.21-6.95-49.38-20.85c-12.99-14.08-19.48-31.55-19.48-52.4s6.49-38.04,19.48-52.12c13.17-14.08,29.63-21.13,49.38-21.13s36.85,8.32,49.11,24.97ZM725.14,199c12.25,0,22.5-4.12,30.73-12.35,8.23-8.6,12.35-19.02,12.35-31.28s-4.12-22.77-12.35-31c-8.23-8.41-18.48-12.62-30.73-12.62s-22.77,4.21-31,12.62c-8.23,8.23-12.35,18.56-12.35,31s4.12,22.68,12.35,31.28c8.23,8.23,18.56,12.35,31,12.35Z"/>
        <path fill="#fff" d="M830.66,85.42h62.18v30.18h-43.07v109.74h-30.73V97.04c0-6.41,5.2-11.62,11.62-11.62Z"/>
        <path fill="#fff" d="M1017.52,107.09V35.15h30.73v190.19h-30.73v-21.67c-12.26,16.65-28.63,24.97-49.11,24.97s-36.21-6.95-49.38-20.85c-12.99-14.08-19.48-31.55-19.48-52.4s6.49-38.04,19.48-52.12c13.17-14.08,29.63-21.13,49.38-21.13s36.85,8.32,49.11,24.97ZM974.44,199c12.25,0,22.5-4.12,30.73-12.35,8.23-8.6,12.35-19.02,12.35-31.28s-4.12-22.77-12.35-31c-8.23-8.41-18.47-12.62-30.73-12.62s-22.77,4.21-31,12.62c-8.23,8.23-12.35,18.56-12.35,31s4.12,22.68,12.35,31.28c8.23,8.23,18.56,12.35,31,12.35Z"/>
      </g>
      <path class="cls-2" d="M230.94,121.13v68.78c0,4.6-2.48,8.92-6.48,11.21l-100.53,58.03c-5.11,2.96-11.82,2.96-16.93,0L2.96,199.08c-1.83-1.05-2.96-3.01-2.96-5.11l.02-122.44c0-4.65,2.46-8.94,6.43-11.21L107.03,2.27c2.61-1.51,5.53-2.27,8.45-2.27s5.82.76,8.43,2.27l104.1,60.12c1.79,1.03,2.9,2.99,2.9,5.11v25.17L115.44,26.03,24.81,78.43v104.67l90.65,52.31,90.69-52.34v-55.09l-90.69-52.36-47.69,27.54-.02,55.07,47.69,27.57,47.77-27.59v-34.02l24.73,14.3v26.6c0,4.6-2.46,8.92-6.43,11.23l-57.61,33.22c-5,2.99-11.73,3.05-16.86,0l-57.76-33.35c-3.89-2.25-6.31-6.43-6.31-10.91l.02-68.97c0-4.6,2.46-8.89,6.46-11.19l57.57-33.24c5.21-3.01,11.71-3.01,16.93,0l100.53,58.05c3.99,2.29,6.48,6.58,6.48,11.19ZM136.13,108.39l-19.91-11.5c-.38-.21-.86-.21-1.24,0l-19.91,11.5c-.38.23-.63.63-.63,1.07v23c0,.44.25.84.63,1.07l11.21,6.46v20.14c0,.44.23.86.61,1.07l8.1,4.73c.38.23.86.23,1.24,0l8.1-4.73c.38-.21.63-.63.63-1.07v-20.14l11.19-6.46c.38-.23.63-.63.63-1.07v-23c0-.44-.25-.84-.63-1.07Z"/>
    </g>
  </g>
</svg>