<svg preserveAspectRatio="none" width="100%" height="100%" overflow="visible" style="display: block;" viewBox="0 0 191.094 44.603" fill="none" xmlns="http://www.w3.org/2000/svg">
<g id="HelloCity">
<path id="Vector" d="M191.094 10.1675L176.45 44.603H168.751L174.107 32.72L164.609 10.1675H172.6L177.998 24.7702L183.354 10.1675H191.094Z" fill="#FFB700"/>
<path id="Vector_2" d="M163.468 27.448V33.515H159.828C157.234 33.515 155.212 32.8874 153.761 31.6321C152.311 30.349 151.585 28.2709 151.585 25.3978V16.109H148.74V10.1675H151.585V4.47707H158.74V10.1675H163.427V16.109H158.74V25.4814C158.74 26.1788 158.908 26.6809 159.242 26.9877C159.577 27.2946 160.135 27.448 160.916 27.448H163.468Z" fill="#FFB700"/>
<path id="Vector_3" d="M141.923 7.74071C140.668 7.74071 139.636 7.37808 138.827 6.65283C138.046 5.89969 137.656 4.97918 137.656 3.8913C137.656 2.77553 138.046 1.85502 138.827 1.12977C139.636 0.376622 140.668 4.90746e-05 141.923 4.90746e-05C143.151 4.90746e-05 144.155 0.376622 144.936 1.12977C145.745 1.85502 146.149 2.77553 146.149 3.8913C146.149 4.97918 145.745 5.89969 144.936 6.65283C144.155 7.37808 143.151 7.74071 141.923 7.74071ZM145.48 10.1675V33.515H138.325V10.1675H145.48Z" fill="#FFB700"/>
<path id="Vector_4" d="M105.449 18.7867C105.449 15.8857 106.077 13.3055 107.332 11.0461C108.588 8.75874 110.331 6.98746 112.562 5.73222C114.822 4.44908 117.374 3.80751 120.219 3.80751C123.706 3.80751 126.691 4.72802 129.174 6.56904C131.656 8.41007 133.316 10.9205 134.153 14.1005H126.286C125.701 12.8731 124.864 11.9387 123.776 11.2971C122.716 10.6556 121.503 10.3348 120.136 10.3348C117.932 10.3348 116.147 11.1019 114.78 12.636C113.413 14.1702 112.73 16.2205 112.73 18.7867C112.73 21.353 113.413 23.4032 114.78 24.9374C116.147 26.4716 117.932 27.2387 120.136 27.2387C121.503 27.2387 122.716 26.9179 123.776 26.2763C124.864 25.6348 125.701 24.7003 126.286 23.473H134.153C133.316 26.6529 131.656 29.1634 129.174 31.0044C126.691 32.8175 123.706 33.7241 120.219 33.7241C117.374 33.7241 114.822 33.0965 112.562 31.8412C110.331 30.5581 108.588 28.7868 107.332 26.5274C106.077 24.268 105.449 21.6877 105.449 18.7867Z" fill="#FFB700"/>
<path id="Vector_5" d="M90.8586 33.8497C88.5712 33.8497 86.5071 33.3616 84.6661 32.3853C82.8529 31.409 81.4164 30.0143 80.3564 28.2011C79.3243 26.388 78.8083 24.268 78.8083 21.8412C78.8083 19.4423 79.3382 17.3363 80.3982 15.5232C81.4582 13.6822 82.9087 12.2735 84.7497 11.2972C86.5908 10.3209 88.6549 9.83277 90.9423 9.83277C93.2296 9.83277 95.2938 10.3209 97.1348 11.2972C98.9758 12.2735 100.426 13.6822 101.486 15.5232C102.546 17.3363 103.076 19.4423 103.076 21.8412C103.076 24.2402 102.532 26.3601 101.444 28.2011C100.384 30.0143 98.92 31.409 97.0511 32.3853C95.2101 33.3616 93.1459 33.8497 90.8586 33.8497ZM90.8586 27.6572C92.2254 27.6572 93.383 27.1551 94.3314 26.1509C95.3077 25.1467 95.7959 23.7102 95.7959 21.8412C95.7959 19.9723 95.3217 18.5358 94.3733 17.5316C93.4527 16.5274 92.3091 16.0253 90.9423 16.0253C89.5475 16.0253 88.3899 16.5274 87.4694 17.5316C86.5489 18.5079 86.0887 19.9444 86.0887 21.8412C86.0887 23.7102 86.535 25.1467 87.4276 26.1509C88.3481 27.1551 89.4918 27.6572 90.8586 27.6572Z" fill="#1B1B1B"/>
<path id="Vector_6" d="M75.255 2.55227V33.5149H68.1001V2.55227H75.255Z" fill="#1B1B1B"/>
<path id="Vector_7" d="M63.1243 2.55227V33.5149H55.9694V2.55227H63.1243Z" fill="#1B1B1B"/>
<path id="Vector_8" d="M52.4041 21.4647C52.4041 22.1341 52.3622 22.8315 52.2785 23.5567H36.0859C36.1975 25.0072 36.6577 26.123 37.4667 26.9041C38.3035 27.6572 39.3217 28.0338 40.5211 28.0338C42.3063 28.0338 43.5476 27.2806 44.245 25.7743H51.8601C51.4696 27.3085 50.7583 28.6893 49.7262 29.9166C48.722 31.144 47.4528 32.1063 45.9186 32.8037C44.3845 33.501 42.669 33.8497 40.7721 33.8497C38.4848 33.8497 36.4485 33.3616 34.6633 32.3853C32.8781 31.409 31.4834 30.0143 30.4792 28.2011C29.475 26.388 28.9729 24.268 28.9729 21.8412C28.9729 19.4144 29.461 17.2945 30.4373 15.4814C31.4415 13.6682 32.8362 12.2735 34.6215 11.2972C36.4067 10.3209 38.4569 9.83277 40.7721 9.83277C43.0316 9.83277 45.04 10.307 46.7973 11.2554C48.5546 12.2038 49.9215 13.5567 50.8978 15.314C51.902 17.0713 52.4041 19.1216 52.4041 21.4647ZM45.0818 19.5818C45.0818 18.3545 44.6634 17.3782 43.8266 16.6529C42.9897 15.9277 41.9437 15.565 40.6885 15.565C39.489 15.565 38.4709 15.9137 37.634 16.6111C36.8251 17.3084 36.323 18.2987 36.1278 19.5818H45.0818Z" fill="#1B1B1B"/>
<path id="Vector_9" d="M25.4396 4.14225V33.5149H18.2847V21.4227H7.15488V33.5149H0V4.14225H7.15488V15.6486H18.2847V4.14225H25.4396Z" fill="#1B1B1B"/>
</g>
</svg>