<svg width="170" height="33" viewBox="0 0 170 33" xmlns="http://www.w3.org/2000/svg">
    <g fill="none" fill-rule="evenodd">
        <path d="M10.8 32.998H0v-22h10.798V0h10.8L32.4 10.998V33H21.597V10.998H10.8v22zM80.998 0v10.998h-10.8V33h-10.8V0h10.8v5.5l5.4-5.5h5.4zM97.2 5.5l-5.4 5.498h5.4V33H86.398V0H97.2v5.5zM113.398 0l-10.8 11v22h16.2l5.402-5.503V33H135V0h-21.602zM124.2 21.997h-10.802v-11H124.2v11zm-70.202-11V33h-10.8V10.998H32.4V0h10.798l10.8 10.998z" fill="#0F53A0" fill-rule="nonzero"/>
        <path fill="#FF8E2B" d="M139 22h31v11h-31z"/>
        <g fill="#FFF" fill-rule="nonzero">
            <path d="M149.39 26.746h-1.4a1.385 1.385 0 0 0-.157-.484 1.235 1.235 0 0 0-.303-.363 1.34 1.34 0 0 0-.427-.23 1.653 1.653 0 0 0-.522-.08 1.56 1.56 0 0 0-.886.251c-.251.167-.446.41-.585.729-.138.318-.207.704-.207 1.158 0 .467.07.859.209 1.176.14.318.335.558.587.72.25.161.542.242.872.242.185 0 .357-.024.516-.073.159-.05.3-.121.424-.216.123-.095.226-.21.308-.347.082-.136.14-.291.171-.466l1.4.006c-.036.3-.126.59-.27.868a2.621 2.621 0 0 1-.579.745c-.241.218-.53.39-.863.517a3.16 3.16 0 0 1-1.13.19 3.08 3.08 0 0 1-1.564-.396 2.8 2.8 0 0 1-1.086-1.147c-.266-.5-.398-1.107-.398-1.819 0-.714.134-1.32.402-1.821.269-.501.633-.883 1.093-1.146.46-.263.978-.395 1.554-.395.379 0 .731.053 1.056.16.325.106.613.261.864.465.252.203.457.452.616.746.158.294.26.63.305 1.01zM151.384 31v-6.545h2.582c.495 0 .917.087 1.267.263.351.176.618.424.803.745.184.32.276.697.276 1.13 0 .434-.094.808-.281 1.12a1.822 1.822 0 0 1-.813.717c-.355.167-.784.25-1.287.25h-1.729v-1.113h1.505c.265 0 .484-.036.659-.108a.791.791 0 0 0 .391-.326 1.04 1.04 0 0 0 .13-.54c0-.218-.043-.4-.13-.55a.821.821 0 0 0-.393-.34 1.644 1.644 0 0 0-.663-.117h-.933V31h-1.384zm3.535-2.979L156.545 31h-1.527l-1.592-2.979h1.493zM158.29 24.455h1.707l1.802 4.397h.077l1.803-4.397h1.706V31h-1.342v-4.26h-.054l-1.694 4.228h-.914l-1.694-4.244h-.055V31h-1.342z"/>
        </g>
    </g>
</svg>