<svg preserveAspectRatio="none" width="100%" height="100%" overflow="visible" style="display: block;" viewBox="0 0 562.999 115.007" fill="none" xmlns="http://www.w3.org/2000/svg">
<g id="Vector">
<path d="M47.2535 13.4217C47.0358 11.9292 45.4707 11.2145 43.7592 11.8212C42.0439 12.4279 40.8316 14.1289 41.0493 15.6214C41.267 17.114 42.8321 17.8286 44.5436 17.2219C46.2589 16.6152 47.4712 14.9142 47.2535 13.4217Z" fill="#FF9D42"/>
<path d="M36.564 20.2591C36.8718 18.6809 36.2112 17.5755 35.089 17.7876C33.9667 17.9998 32.8069 19.4477 32.4992 21.0221C32.1914 22.6003 32.852 23.7057 33.9742 23.4935C35.0965 23.2814 36.2563 21.8335 36.564 20.2591Z" fill="#FF9D42"/>
<path d="M31.1067 26.8471C30.9828 25.7082 30.341 25.068 29.6692 25.4178C28.9973 25.7714 28.5544 26.9774 28.6783 28.12C28.8021 29.259 29.444 29.8992 30.1158 29.5493C30.7876 29.1957 31.2305 27.9898 31.1067 26.8471Z" fill="#FF9D42"/>
<path d="M67.499 13.4217C67.7167 11.9292 69.2818 11.2145 70.9934 11.8212C72.7086 12.4279 73.921 14.1289 73.7033 15.6214C73.4856 17.114 71.9204 17.8286 70.2089 17.2219C68.4936 16.6152 67.2813 14.9142 67.499 13.4217Z" fill="#FF9D42"/>
<path d="M78.1847 20.2591C77.877 18.6809 78.5376 17.5755 79.6598 17.7876C80.7821 17.9998 81.9418 19.4477 82.2496 21.0221C82.5574 22.6003 81.8968 23.7057 80.7745 23.4935C79.6523 23.2814 78.4925 21.8335 78.1847 20.2591Z" fill="#FF9D42"/>
<path d="M83.6458 26.8471C83.7697 25.7082 84.4115 25.068 85.0834 25.4178C85.7552 25.7714 86.1981 26.9774 86.0742 28.12C85.9504 29.259 85.3086 29.8992 84.6367 29.5493C83.9649 29.1957 83.522 27.9898 83.6458 26.8471Z" fill="#FF9D42"/>
<path d="M85.515 20.341C85.196 20.4712 84.6442 20.5308 83.9161 19.965C82.685 19.042 83.1054 16.7008 81.6641 14.2033C80.2153 11.6723 78.3724 12.0222 78.774 13.9353C79.1831 15.8485 77.6255 16.444 75.4448 14.2629C73.2529 12.0892 73.6657 9.94902 71.3724 8.35227C69.432 7.03466 67.7505 7.77535 67.3526 9.51355C66.9435 11.2108 64.8829 12.0334 63.5017 11.5979C62.1017 11.1624 61.55 9.51355 60.5103 7.55203C59.7897 6.17487 58.8889 5.47885 57.38 5.47885C55.8712 5.47885 54.9704 6.17487 54.2497 7.55203C53.2101 9.51727 52.6583 11.1624 51.2583 11.5979C49.8771 12.0334 47.8165 11.2108 47.4074 9.51355C47.0058 7.77907 45.3281 7.03466 43.3876 8.35227C41.0981 9.94902 41.5072 12.0929 39.3152 14.2629C37.1345 16.444 35.5731 15.8485 35.986 13.9353C36.3876 12.0222 34.5447 11.6723 33.096 14.2033C31.6547 16.7045 32.075 19.042 30.844 19.965C30.1121 20.5308 29.5641 20.4712 29.245 20.341C33.0547 8.53837 44.2058 0 57.3688 0H57.3875C70.5505 0 81.7016 8.53837 85.5112 20.341H85.515Z" fill="#FF9D42"/>
<path d="M3.67357 25.9278L30.0407 35.7093V35.7167C30.1045 35.8098 30.1608 35.8917 30.2247 35.9847L54.6476 100.73H51.3071C48.92 100.73 46.8256 99.159 46.1763 96.8811L43.1924 86.4482C41.4133 80.2324 37.7163 74.2176 31.6209 71.9471L15.7405 66.0588C9.4537 63.7363 4.90466 58.2425 3.81244 51.6769L0.0365914 28.8942C-0.297455 26.8471 1.71433 25.2131 3.67732 25.9278H3.67357Z" fill="var(--fill-0, #22577A)"/>
<path d="M35.1265 37.6001C41.4133 39.9338 45.9624 45.4164 47.0471 51.9821L55.1243 100.73H53.8894L27.3721 34.7304L35.1265 37.6038V37.6001Z" fill="#57CC99"/>
<path d="M111.071 25.9278L84.7043 35.7093V35.7167C84.6405 35.8098 84.5842 35.8917 84.5204 35.9847L60.0974 100.73H63.4379C65.825 100.73 67.9194 99.159 68.5687 96.8811L71.5526 86.4482C73.3317 80.2324 77.0287 74.2176 83.1241 71.9471L99.0045 66.0588C105.291 63.7363 109.84 58.2425 110.933 51.6769L114.712 28.8905C115.046 26.8434 113.034 25.2094 111.071 25.924V25.9278Z" fill="var(--fill-0, #22577A)"/>
<path d="M79.6223 37.6001C73.3354 39.9338 68.7864 45.4164 67.7017 51.9821L59.6245 100.73H60.8594L87.3767 34.7267L79.6223 37.6001Z" fill="#57CC99"/>
<path d="M57.3725 15.3311C59.4164 15.3311 61.0733 13.9863 61.0733 12.3274C61.0733 10.6685 59.4164 9.32372 57.3725 9.32372C55.3286 9.32372 53.6717 10.6685 53.6717 12.3274C53.6717 13.9863 55.3286 15.3311 57.3725 15.3311Z" fill="#FF9D42"/>
<path d="M171.857 96.3637V37.0455H144.296V26.0208H211.477V37.0455H184.021V96.3637H171.857Z" fill="#112C3D"/>
<path d="M233.265 97.3985C215.305 97.3985 204.582 87.2298 204.582 70.1978C204.582 53.1657 216.026 42.8928 233.055 42.8928C250.084 42.8928 260.589 52.4436 260.589 67.8157C260.589 69.833 260.465 71.2697 260.161 72.7771L260.083 73.1717H216.142C216.724 83.009 221.926 87.4048 232.95 87.4048C242.941 87.4048 247.802 84.416 247.802 78.2672V76.9458H260.068V78.3676C260.068 89.5673 249.044 97.391 233.265 97.391V97.3985ZM248.946 65.9807C248.838 57.0292 243.568 52.6781 232.845 52.6781C222.121 52.6781 217.058 56.9101 216.259 65.9807H248.946Z" fill="#112C3D"/>
<path d="M296.835 97.3985C278.875 97.3985 268.152 87.2298 268.152 70.1978C268.152 53.1657 279.596 42.8928 296.625 42.8928C313.654 42.8928 324.159 52.4436 324.159 67.8157C324.159 69.8367 324.036 71.2771 323.732 72.7771L323.653 73.1717H279.712C280.294 83.009 285.496 87.4048 296.524 87.4048C306.515 87.4048 311.372 84.416 311.372 78.2672V76.9458H323.638V78.3676C323.638 89.5673 312.614 97.391 296.835 97.391V97.3985ZM312.52 65.9807C312.412 57.0292 307.142 52.6781 296.419 52.6781C285.695 52.6781 280.632 56.9101 279.833 65.9807H312.52Z" fill="#112C3D"/>
<path d="M343.894 26.0208H331.629V96.3674H343.894V26.0208Z" fill="#112C3D"/>
<path d="M380.354 97.3985C362.823 97.3985 351.045 86.4668 351.045 70.1978C351.045 53.9287 362.823 42.8928 380.354 42.8928C397.886 42.8928 409.769 53.8654 409.769 70.1978C409.769 86.5301 397.95 97.3985 380.354 97.3985ZM380.354 53.7128C368.584 53.7128 363.104 58.9497 363.104 70.1978C363.104 81.4458 368.584 86.478 380.354 86.478C392.125 86.478 397.71 81.3043 397.71 70.1978C397.71 59.0912 392.196 53.7128 380.354 53.7128Z" fill="#112C3D"/>
<path d="M444.664 115C428.573 115 418.173 107.128 418.173 94.9419V94.4506H430.334V94.9419C430.334 102.055 434.387 104.697 445.291 104.697C457.23 104.697 460.871 101.377 460.871 90.4903V78.8887C458.465 86.9358 450.729 91.7075 439.965 91.7075C424.696 91.7075 414.832 82.1269 414.832 67.302C414.832 52.4771 424.985 42.8966 440.697 42.8966C451.589 42.8966 459.328 47.6682 461.708 55.7488V43.935H473.035V89.8762C473.035 106.316 463.224 115.007 444.668 115.007L444.664 115ZM443.932 53.6086C432.361 53.6086 427.203 57.8331 427.203 67.2983C427.203 76.7634 432.267 81.0922 443.621 81.0922C454.974 81.0922 460.871 76.4657 460.871 67.7114V66.2636C460.871 58.1011 454.854 53.6086 443.932 53.6086Z" fill="#112C3D"/>
<path d="M493.101 43.9276H480.835V96.3637H493.101V43.9276Z" fill="#112C3D"/>
<path d="M540.059 70.0154L562.98 96.3637H548.001L530.78 76.6927H530.491L513.481 96.3637H498.701L521.63 70.2238V69.967L498.689 43.9238H513.68L527.815 59.8914V59.8989L530.908 63.3901H531.088L548.098 43.9238H562.999L540.059 69.7623V70.0154Z" fill="#112C3D"/>
<path d="M492.981 39.703V27.7814H480.959V39.703H492.981Z" fill="#FF9D42"/>
<path d="M562.999 43.9238L540.059 69.7586V70.0154C537.968 70.0154 535.716 68.8169 534.327 67.2611L530.908 63.3864H531.088L548.098 43.9201H562.999V43.9238Z" fill="var(--fill-0, #22577A)"/>
</g>
</svg>