<svg width="164" height="38" viewBox="0 0 164 38" fill="none" xmlns="http://www.w3.org/2000/svg">
<path d="M137.992 14.5887H142.216V20.5762C142.216 21.7431 141.27 22.6887 140.103 22.6887C138.936 22.6887 137.991 21.7431 137.991 20.5762H134.656C134.656 23.5847 137.095 26.0225 140.103 26.0225C143.111 26.0225 145.55 23.5839 145.55 20.5762V11.2556H137.992V14.5887Z" fill="white"/>
<path d="M119.702 11.2556V26.0233H131.383V22.6903H123.035V20.306H128.049V16.9754H123.035V14.5911H131.383V11.258L119.702 11.2556Z" fill="white"/>
<path d="M116.121 16.5309C116.121 13.6175 113.759 11.2556 110.846 11.2556H103.201V26.0241H106.536V21.8047H109.859L112.257 26.0241H116.027L113.283 21.2028C115.023 20.2948 116.115 18.494 116.115 16.5309M106.533 14.5911H110.84C111.912 14.5911 112.781 15.4599 112.781 16.5309C112.781 17.6028 111.912 18.4716 110.84 18.4716H106.533V14.5911Z" fill="white"/>
<path d="M93.75 11.2556H90.1987L83.8372 26.0233H87.3884L88.477 23.496H95.4709L96.5595 26.0233H100.111L93.75 11.2556ZM89.9134 20.1629L91.9748 15.3784L94.0361 20.1629H89.9134Z" fill="white"/>
<path d="M50.8154 11.2556V14.5887H55.815V26.0233H59.1481V14.5887H64.1692V11.2556H50.8154Z" fill="white"/>
<path d="M77.451 16.9754H70.7417V11.258H67.4087V26.0233H70.7417V20.306H77.451V26.0233H80.7841V11.2556H77.451V16.9754Z" fill="white"/>
<path d="M157.639 11.2556H154.088L147.726 26.0233H151.278L152.366 23.496H159.36L160.449 26.0233H164L157.639 11.2556ZM153.803 20.1629L155.864 15.3784L157.925 20.1629H153.803Z" fill="white"/>
<path d="M28.3637 9.13731C27.7128 4.27033 23.5439 0.5 18.5013 0.5C13.4586 0.5 9.28844 4.27033 8.63889 9.13731C3.77046 9.78811 0 13.9569 0 19.0006C0 24.0444 3.77046 28.2119 8.6376 28.8627C9.28843 33.7297 13.4573 37.5 18.5 37.5C23.5427 37.5 27.7116 33.7297 28.3624 28.8627C33.2308 28.2119 37 24.0431 37 19.0006C37 13.9582 33.2295 9.7894 28.3624 9.13859M18.5 3.34408C21.9848 3.34408 24.8866 5.86148 25.4952 9.17318C24.2652 9.36662 23.1173 9.7958 22.0809 10.3966L22.0732 10.3685C21.6363 8.73888 20.7818 7.19769 19.5044 5.92042L18.4987 4.91602L17.493 5.92042C16.2413 7.17207 15.3663 8.70044 14.9191 10.3659L14.9127 10.3941C13.8763 9.7958 12.7309 9.36791 11.5036 9.17446C12.1121 5.86405 15.014 3.34537 18.4987 3.34537M20.1117 20.6149C22.7419 21.2272 24.8136 23.2988 25.426 25.9289C22.7957 25.3166 20.7241 23.245 20.1117 20.6149ZM20.1117 17.389C20.7241 14.7589 22.7957 12.6873 25.426 12.0749C24.8136 14.705 22.7419 16.7766 20.1117 17.389ZM18.4987 13.8736C18.1887 13.3599 17.8338 12.8769 17.4392 12.4285C17.525 11.2691 17.8876 10.1635 18.4974 9.19239C19.1188 10.1865 19.4698 11.3024 19.5544 12.4336C19.1624 12.8807 18.8075 13.3612 18.4987 13.8749M19.5544 25.5728C19.4698 26.704 19.1188 27.8199 18.4974 28.814C17.8876 27.8429 17.525 26.7373 17.4392 25.5779C17.8338 25.1295 18.1887 24.6465 18.4987 24.1328C18.8062 24.6453 19.1611 25.127 19.5544 25.5741M11.5728 25.9302C12.1851 23.3001 14.2568 21.2285 16.887 20.6161C16.2746 23.2463 14.203 25.3178 11.5728 25.9302ZM11.5728 12.0775C14.203 12.6898 16.2746 14.7614 16.887 17.3916C14.2568 16.7792 12.1851 14.7076 11.5728 12.0775ZM2.84162 19.0045C2.84162 15.5198 5.35911 12.6181 8.67091 12.0096C8.86309 13.2369 9.29228 14.3822 9.89058 15.4174L9.8624 15.425C8.19689 15.8721 6.66974 16.7472 5.41676 17.9988L4.41233 19.0045L5.41676 20.0089C6.66974 21.2605 8.19689 22.1355 9.8624 22.5826L9.89058 22.5903C9.29228 23.6255 8.86309 24.7708 8.67091 25.9994C5.36039 25.3909 2.84162 22.4891 2.84162 19.0045ZM8.68757 19.0045C9.65997 18.3934 10.7656 18.0308 11.9264 17.945C12.3748 18.3396 12.8578 18.6945 13.3715 19.0045C12.8578 19.3132 12.3748 19.6694 11.9264 20.0627C10.7656 19.9769 9.65997 19.6143 8.68757 19.0045ZM18.5 34.661C15.0152 34.661 12.1134 32.1424 11.5048 28.8319C12.7322 28.6398 13.8776 28.2106 14.914 27.6123L14.9217 27.6405C15.3688 29.306 16.2439 30.8331 17.4956 32.086L18.5013 33.0904L19.507 32.086C20.7843 30.8087 21.6376 29.2675 22.0757 27.6379L22.0834 27.6098C23.1199 28.2093 24.2678 28.6398 25.4977 28.8332C24.8892 32.1436 21.9873 34.6623 18.5026 34.6623M25.0762 20.064C24.6278 19.6707 24.1448 19.3145 23.6311 19.0058C24.1448 18.6957 24.6278 18.3409 25.0749 17.9463C26.2357 18.0321 27.3413 18.3947 28.3137 19.0058C27.3413 19.6156 26.2357 19.9781 25.0749 20.064M28.3291 26.0007C28.1369 24.7734 27.7077 23.628 27.1094 22.5929L27.1363 22.5852C28.8018 22.1381 30.329 21.2631 31.582 20.0114L32.5877 19.007L31.582 18.0014C30.3303 16.7484 28.8018 15.8734 27.1363 15.4276L27.1081 15.4199C27.7064 14.3848 28.1356 13.2394 28.3278 12.0121C31.6383 12.6207 34.1571 15.5224 34.1571 19.007C34.1571 22.4917 31.6396 25.3934 28.3278 26.002" fill="white"/>
</svg>